<?xml version="1.0" encoding="UTF-8"?>
<svg id="Layer_2" data-name="Layer 2" xmlns="http://www.w3.org/2000/svg" viewBox="0 0 240 90">
  <defs>
    <style>
      .cls-1 {
        fill: #fbb916;
      }

      .cls-2 {
        fill: #767cbb;
      }

      .cls-3 {
        fill: #0D6EFD;
      }
    </style>
  </defs>
  <g id="Layer_1-2" data-name="Layer 1">
    <g>
      <path class="cls-3" d="m57.85,31.42c.22.74.34.97.35,1.21.41,8.97-.07,9.47-9.11,9.47-4.98,0-9.97-.06-14.95.02-8.01.14-13.91,5.92-13.9,13.49.02,7.26,5.9,13.31,13.15,13.53,7.58.23,13.7-5.51,14.2-13.32,0-.12.02-.25,0-.37-.85-8.02.61-9.46,10.19-8.24,2.58,14.07-3.17,26.28-14.83,30.7-9.58,3.63-18.52,2.06-25.93-5.08-7.4-7.14-9.41-15.97-5.85-25.58,3.63-9.79,11.22-15.1,21.56-15.74,8.29-.51,16.65-.1,25.11-.1Z"/>
      <path class="cls-3" d="m66.8,64.76v-28.95c6.75.08,13.44-.92,19.98.82,6.93,1.83,10.89,7.94,10.31,15.25-.53,6.67-5.76,12.23-12.85,12.79-5.66.45-11.39.09-17.44.09Zm8.44-22.23v15.9c4.71.06,9.43.99,12.3-3.69,1.74-2.84,1.77-5.98-.04-8.79-2.98-4.61-7.7-3.46-12.26-3.43Z"/>
      <path class="cls-3" d="m232.24,64.71h-8.46c-.8-1.65-1.65-3.39-2.54-5.21h-12.26c-.77,1.65-1.59,3.4-2.44,5.23-2.62.28-5.17.39-8.25-.15,4.31-9.7,8.51-19.15,12.75-28.7h8.26c4.21,9.38,8.49,18.91,12.95,28.84Zm-17.12-20.63c-1.4,3.44-2.49,6.12-3.66,8.99h7.35c-1.21-2.95-2.27-5.53-3.69-8.99Z"/>
      <path class="cls-3" d="m165.15,64.72c-.79-1.71-1.56-3.38-2.39-5.19h-12.4c-.76,1.64-1.53,3.31-2.37,5.11-2.56.56-5.13.2-8.41.25,4.38-9.89,8.6-19.39,12.85-28.99h8.3c4.2,9.35,8.49,18.89,12.93,28.77-3.08.39-5.73.34-8.51.05Zm-8.5-20.34c-1.61,3.08-2.9,5.76-3.5,8.74h7.11c-1.25-3.02-2.34-5.67-3.61-8.74Z"/>
      <path class="cls-3" d="m113.91,62.14c.9-1.92,1.33-3.88,2.73-5.4,4.78,1.52,9.5,4.29,14.38.63-.51-2.53-2.23-2.73-3.74-3.17-2.38-.68-4.82-1.2-7.15-2-3.4-1.17-5.81-3.2-5.86-7.21-.05-4.13,2.02-6.9,5.6-8.38,5.95-2.46,11.86-1.82,17.7,1-.3,2.26-1.12,4.11-2.23,5.83-9.04-2.74-11.26-2.52-12.74,1.23.92,1.72,2.72,1.88,4.37,2.3,2.16.55,4.37.98,6.46,1.73,3.09,1.11,5.41,2.99,5.67,6.61.28,3.89-1.4,6.66-4.73,8.54-5.21,2.94-14.93,2.19-20.45-1.71Z"/>
      <path class="cls-3" d="m190.01,64.77h-8.66c3.22-11.96-6.33-19.22-10.54-28.85h8.48c2.15,3.49,4.44,7.23,6.99,11.36,2.48-4.07,4.7-7.72,6.96-11.44h8c-2.71,4.52-5.03,8.85-7.8,12.88-2.64,3.84-4.04,7.83-3.45,12.48.14,1.07.02,2.18.02,3.56Z"/>
      <path class="cls-1" d="m28.05,46.97h17.59c-1.73,2.37-1.43,4.85-1.43,7.31,0,5.39-3.37,10.04-8.05,11.16-4.6,1.1-9.43-1.17-11.57-5.44-2.31-4.6-1.21-8.96,3.46-13.03Z"/>
      <path class="cls-3" d="m109.2,64.8h-7.36v-28.89h7.94c0,9.34,0,18.69,0,28.04-.19.29-.39.57-.58.86Z"/>
      <path class="cls-1" d="m58.22,11.05c0,3.92-.01,7.61,0,11.3.01,2.43-1.53,3.51-3.6,4.07-2.14.58-4.3,1.08-6.46,1.62-1.56-10.98-.95-16.43,10.05-16.99Z"/>
      <path class="cls-2" d="m109.2,64.8c.19-.29.39-.57.58-.86.13.5-.02.82-.58.86Z"/>
    </g>
  </g>
</svg>